HIERARCHY
ROOT SpineBase
{
  OFFSET 0.000000 0.000000 0.000000
  CHANNELS 6 Xposition Yposition Zposition Zrotation Xrotation Yrotation
  JOINT SpineMid
  {
    OFFSET 0.000000 31.864201 0.000000
    CHANNELS 3 Zrotation Xrotation Yrotation
    JOINT SpineShoulder
    {
      OFFSET 0.084000 23.645505 -0.767591
      CHANNELS 3 Zrotation Xrotation Yrotation
      JOINT Neck
      {
        OFFSET 0.052023 7.812034 -0.581937
        CHANNELS 3 Zrotation Xrotation Yrotation
        JOINT Head
        {
          OFFSET -5.308397 14.211080 -1.105537
          CHANNELS 3 Zrotation Xrotation Yrotation
          End Site
          {
            OFFSET 0 0 0
          }
        }
      }
      JOINT ShoulderLeft
      {
        OFFSET -17.095634 -6.800082 6.848297
        CHANNELS 3 Zrotation Xrotation Yrotation
        JOINT ElbowLeft
        {
          OFFSET -1.668819 -31.538749 1.621067
          CHANNELS 3 Zrotation Xrotation Yrotation
          JOINT WristLeft
          {
            OFFSET -5.423980 -21.450865 -5.253054
            CHANNELS 3 Zrotation Xrotation Yrotation
            JOINT HandLeft
            {
              OFFSET -0.281838 -5.192515 -1.415749
              CHANNELS 3 Zrotation Xrotation Yrotation
              JOINT HandTipLeft
              {
                OFFSET -1.029610 -6.387483 -3.818611
                CHANNELS 3 Zrotation Xrotation Yrotation
                End Site
                {
                  OFFSET 0 0 0
                }
              }
              JOINT ThumbLeft
              {
                OFFSET -2.689427 1.409455 -3.388615
                CHANNELS 3 Zrotation Xrotation Yrotation
                End Site
                {
                  OFFSET 0 0 0
                }
              }
            }
          }
        }
      }
      JOINT ShoulderRight
      {
        OFFSET 15.425108 -2.998427 -8.370625
        CHANNELS 3 Zrotation Xrotation Yrotation
        JOINT ElbowRight
        {
          OFFSET 7.182754 -24.854621 -1.981700
          CHANNELS 3 Zrotation Xrotation Yrotation
          JOINT WristRight
          {
            OFFSET -2.197277 -25.268237 -6.384513
            CHANNELS 3 Zrotation Xrotation Yrotation
            JOINT HandRight
            {
              OFFSET -1.924205 -5.894352 -0.187770
              CHANNELS 3 Zrotation Xrotation Yrotation
              JOINT HandTipRight
              {
                OFFSET -0.489736 -7.161505 -0.666856
                CHANNELS 3 Zrotation Xrotation Yrotation
                End Site
                {
                  OFFSET 0 0 0
                }
              }
              JOINT ThumbRight
              {
                OFFSET 2.619450 -1.557292 -3.010755
                CHANNELS 3 Zrotation Xrotation Yrotation
                End Site
                {
                  OFFSET 0 0 0
                }
              }
            }
          }
        }
      }
    }
  }
  JOINT HipLeft
  {
    OFFSET -7.016612 0.070711 -0.787955
    CHANNELS 3 Zrotation Xrotation Yrotation
    JOINT KneeLeft
    {
      OFFSET -3.554382 -31.828188 2.542062
      CHANNELS 3 Zrotation Xrotation Yrotation
      JOINT AnkleLeft
      {
        OFFSET 13.992482 -38.947960 9.016242
        CHANNELS 3 Zrotation Xrotation Yrotation
        JOINT FootLeft
        {
          OFFSET -0.579597 -5.936217 -5.173898
          CHANNELS 3 Zrotation Xrotation Yrotation
          End Site
          {
            OFFSET 0 0 0
          }
        }
      }
    }
  }
  JOINT HipRight
  {
    OFFSET 7.496293 1.556118 -6.457973
    CHANNELS 3 Zrotation Xrotation Yrotation
    JOINT KneeRight
    {
      OFFSET 7.692775 -31.507000 0.995946
      CHANNELS 3 Zrotation Xrotation Yrotation
      JOINT AnkleRight
      {
        OFFSET 4.815090 -39.107468 7.859997
        CHANNELS 3 Zrotation Xrotation Yrotation
        JOINT FootRight
        {
          OFFSET -1.772249 -5.686316 -5.128463
          CHANNELS 3 Zrotation Xrotation Yrotation
          End Site
          {
            OFFSET 0 0 0
          }
        }
      }
    }
  }
}
MOTION
Frames: 7
Frame Time: 0.033333
-19.475535 73.633921 349.018287 17.173112 -8.802902 55.132835 -0.034675 -0.094959 -53.201603 -0.633086 0.688415 0.647295 27.500094 6.759630 -2.890930 0.000000 0.000000 0.000000 -54.504557 17.883564 6.468627 72.223821 47.223134 -30.917934 -25.314446 -14.655230 4.099055 4.100414 -34.605220 1.420767 0.000000 0.000000 0.000000 0.000000 0.000000 0.000000 -73.140346 24.241868 30.574701 -9.955326 -28.299800 -15.720927 26.270021 -27.715507 -9.716842 -10.753459 53.551501 7.744899 0.000000 0.000000 0.000000 0.000000 0.000000 0.000000 7.652770 13.738984 -56.083565 -23.630593 1.145564 -2.161185 12.062153 -0.029430 2.253672 0.000000 0.000000 0.000000 -0.001095 15.427988 -54.000724 -5.760045 0.464115 -0.350137 0.533607 -4.857630 2.141064 0.000000 0.000000 0.000000
-19.533202 73.776679 348.787111 16.961978 -8.438890 53.680819 -0.027902 0.061859 -51.838653 -0.645970 0.761154 0.620922 27.516120 6.368698 -2.551907 0.000000 0.000000 0.000000 -54.047552 14.492670 5.180732 73.481551 52.595621 -35.636521 -24.588157 -19.985617 4.085821 3.619820 -28.489770 0.336526 0.000000 0.000000 0.000000 0.000000 0.000000 0.000000 -73.042839 28.276569 34.018596 -12.751537 -35.016055 -22.075807 28.951312 -24.109366 -8.540614 -23.155701 48.941756 13.730408 0.000000 0.000000 0.000000 0.000000 0.000000 0.000000 6.594024 13.341824 -54.368235 -23.322875 1.425634 -2.104135 16.137983 -2.868869 -0.701621 0.000000 0.000000 0.000000 0.194134 15.238213 -52.576951 -6.467448 -0.619037 -0.716340 1.039954 -4.917676 2.367091 0.000000 0.000000 0.000000
-19.514734 73.880254 348.624651 16.807447 -8.142988 52.642873 -0.037331 0.252748 -50.873155 -0.613899 0.764831 0.605962 27.516484 6.396617 -2.299063 0.000000 0.000000 0.000000 -53.362355 11.382892 4.016460 74.859551 56.697934 -39.918557 -24.550188 -22.146762 3.655269 7.522530 -25.942445 0.486631 0.000000 0.000000 0.000000 0.000000 0.000000 0.000000 -72.999962 31.378896 36.700075 -18.544150 -41.026041 -29.338738 29.487201 -15.286944 -9.509983 -31.793320 37.398030 16.595580 0.000000 0.000000 0.000000 0.000000 0.000000 0.000000 5.857608 13.285013 -53.216034 -22.850817 1.347725 -2.107873 15.826419 -2.386081 -0.624151 0.000000 0.000000 0.000000 -0.273377 15.463238 -51.471746 -5.886396 -1.044324 -0.775978 -0.457649 -2.636470 2.838334 0.000000 0.000000 0.000000
-19.463137 73.960843 348.497098 16.672398 -7.901621 51.858507 -0.051506 0.394261 -50.147322 -0.526380 0.662768 0.609136 27.952070 6.761106 -2.186084 0.000000 0.000000 0.000000 -52.823812 8.987434 3.184287 75.247404 58.482631 -41.942118 -21.073749 -18.472542 5.161038 12.249267 -31.447551 2.298024 0.000000 0.000000 0.000000 0.000000 0.000000 0.000000 -72.688199 32.204670 37.229132 -25.233486 -44.816597 -35.600266 27.740345 -2.194920 -11.382067 -38.808388 21.639033 16.445081 0.000000 0.000000 0.000000 0.000000 0.000000 0.000000 5.246212 13.338983 -52.358949 -22.335972 1.219149 -2.110304 16.177481 -3.358048 -0.865765 0.000000 0.000000 0.000000 -0.047555 15.522989 -50.696692 -6.241539 -1.916720 -1.065262 -3.705330 5.125502 3.787272 0.000000 0.000000 0.000000
-19.384917 74.022170 348.393032 16.549371 -7.708530 51.336027 -0.080949 0.415330 -49.664469 -0.409818 0.474215 0.629508 27.554599 7.629948 -2.186293 0.000000 0.000000 0.000000 -51.815263 7.487809 2.682179 80.566985 60.596768 -48.814595 -35.466243 -21.457036 -2.388917 26.504710 -29.109259 4.386688 0.000000 0.000000 0.000000 0.000000 0.000000 0.000000 -71.621542 33.378349 37.507294 -38.399725 -46.326815 -45.023353 27.882563 3.646382 -12.814231 -40.462424 7.578205 12.043771 0.000000 0.000000 0.000000 0.000000 0.000000 0.000000 4.712415 13.522164 -51.794081 -21.710495 1.059287 -2.093924 17.852533 -6.647766 -1.834810 0.000000 0.000000 0.000000 -0.027486 15.636846 -50.162241 -6.291751 -2.403048 -1.232098 -6.282335 9.005748 5.241306 0.000000 0.000000 0.000000
-19.297700 74.071467 348.323731 16.419189 -7.558464 50.656989 -0.099579 0.412214 -49.019039 -0.356551 0.342780 0.642549 26.645241 8.500937 -2.144669 0.000000 0.000000 0.000000 -50.559853 6.561753 2.338978 79.703793 66.222107 -52.591117 -40.473776 -28.386383 -7.593357 38.462270 -23.465671 4.002674 0.000000 0.000000 0.000000 0.000000 0.000000 0.000000 -69.148120 36.039503 38.028604 -50.108388 -47.168502 -53.691941 27.911413 12.120193 -13.453006 -37.794027 -3.584757 5.293686 0.000000 0.000000 0.000000 0.000000 0.000000 0.000000 4.087801 13.585058 -51.012728 -21.131130 1.096740 -2.033130 14.121793 -3.887179 0.585992 0.000000 0.000000 0.000000 -0.209965 15.845161 -49.441204 -6.024670 -2.724510 -1.316219 -6.622698 6.956244 6.120046 0.000000 0.000000 0.000000
-19.217581 74.180274 348.251124 16.298509 -7.399066 50.211184 -0.086630 0.399773 -48.610398 -0.312758 0.274616 0.647779 24.850587 9.333198 -1.987030 0.000000 0.000000 0.000000 -50.452433 7.433947 2.512105 71.621015 71.206649 -48.116070 -42.729032 -38.831564 -13.113310 47.025627 -13.416247 -0.821108 0.000000 0.000000 0.000000 0.000000 0.000000 0.000000 -65.377914 38.753345 37.540906 -57.401351 -46.270473 -57.414680 26.819199 15.756340 -13.139780 -38.350279 -6.794385 3.497686 0.000000 0.000000 0.000000 0.000000 0.000000 0.000000 3.526493 13.637901 -50.479560 -20.592603 1.156888 -1.967004 9.936791 -1.932120 3.554603 0.000000 0.000000 0.000000 -0.208368 15.896674 -48.986754 -6.097158 -2.980722 -1.434899 -7.549852 6.949053 7.086263 0.000000 0.000000 0.000000
